<svg id="Capa_1" data-name="Capa 1" xmlns="http://www.w3.org/2000/svg" viewBox="0 0 111 111"><title>icon-4</title><polygon points="65.77 28.4 55.02 38.95 49.19 32.49 46.49 34.86 54.8 43.74 68.36 30.99 65.77 28.4"/><path d="M15.58,88.2H18.5V84a2.07,2.07,0,0,1,.6-1.47h0A4.17,4.17,0,0,1,22,81.32H35.73a2.84,2.84,0,0,1,2,.82h0a1.89,1.89,0,0,1,.54,1.31V88.2h2.94V83.88A4.05,4.05,0,0,0,40,81l-.36-.37a4.55,4.55,0,0,0-3.21-1.33H19.75a3,3,0,0,0-2.14.89l-.53.53A4.75,4.75,0,0,0,15.69,84Z"/><path d="M44.08,96.37H47V92.16a2,2,0,0,1,.6-1.46h0a4.17,4.17,0,0,1,2.92-1.21H64.23a2.84,2.84,0,0,1,2,.82h0a1.89,1.89,0,0,1,.54,1.31v4.75h2.94V92a4.09,4.09,0,0,0-1.2-2.89l-.36-.36a4.55,4.55,0,0,0-3.21-1.33H48.25a3,3,0,0,0-2.14.89l-.53.53a4.74,4.74,0,0,0-1.39,3.23Z"/><path d="M71.75,89h2.91V84.83a2.06,2.06,0,0,1,.61-1.46h0a4.09,4.09,0,0,1,2.92-1.21H91.9a2.75,2.75,0,0,1,2,.82h0a1.84,1.84,0,0,1,.55,1.31V89h2.93V84.71a4.12,4.12,0,0,0-1.19-2.89l-.37-.36a4.53,4.53,0,0,0-3.21-1.33H75.92a3,3,0,0,0-2.14.88l-.54.54a4.72,4.72,0,0,0-1.38,3.23Z"/><path d="M28.38,58.48a9.89,9.89,0,1,0,9.89,9.89A9.88,9.88,0,0,0,28.38,58.48Zm0,17.58a7.69,7.69,0,1,1,7.7-7.69A7.7,7.7,0,0,1,28.38,76.06Z"/><path d="M56.88,66.17a9.89,9.89,0,1,0,9.89,9.89A9.88,9.88,0,0,0,56.88,66.17Zm0,17.58a7.69,7.69,0,1,1,7.7-7.69A7.69,7.69,0,0,1,56.88,83.75Z"/><path d="M84.55,59.17a9.89,9.89,0,1,0,9.89,9.89A9.89,9.89,0,0,0,84.55,59.17Zm0,17.58a7.69,7.69,0,1,1,7.69-7.69A7.69,7.69,0,0,1,84.55,76.75Z"/><path d="M76.64,18.27,69,17.09a14.42,14.42,0,0,1-4.56-2l-7.71-5.07-7.15,4.77a14.68,14.68,0,0,1-6.15,2.32l-7.51,1V39.12a16,16,0,0,0,2.18,8.18,5.51,5.51,0,0,0,1.05,1.38l6.14,5.11a13.54,13.54,0,0,0,1.12.88l9.43,6.57.89.69,7.9-5.6c2.93-2.18,4.91-3.9,6-4.84a10,10,0,0,1,.85-.6l2.88-2.15c2.85-2.06,2.9-6,2.85-7.81Zm-4,28.16L68.8,49.37c-.09.52-5.37,3.91-5.5,4l-6.73,5.11L47.4,51.27a6.44,6.44,0,0,1-.77-.61l-5.46-4.94a6.28,6.28,0,0,1-2.07-4.66V20.68l6.1-.82a13.54,13.54,0,0,0,6.59-2.8l4.48-3.55,1.21,1a29.1,29.1,0,0,0,11.08,5.38l5.49,1.34V41.85A7,7,0,0,1,72.68,46.43ZM47,50.05"/></svg>