<?xml version="1.0" standalone="no"?>
<!DOCTYPE svg PUBLIC "-//W3C//DTD SVG 20010904//EN"
 "http://www.w3.org/TR/2001/REC-SVG-20010904/DTD/svg10.dtd">
<svg version="1.0" xmlns="http://www.w3.org/2000/svg"
 width="111.000000pt" height="111.000000pt" viewBox="0 0 111.000000 111.000000"
 preserveAspectRatio="xMidYMid meet">

<g transform="translate(0.000000,111.000000) scale(0.100000,-0.100000)"
fill="#000000" stroke="none">
<path d="M509 841 c-32 -32 -35 -47 -18 -85 16 -35 61 -52 98 -37 28 12 51 47
51 77 0 23 -55 74 -80 74 -12 0 -35 -13 -51 -29z m101 -7 c18 -21 17 -72 -3
-91 -21 -21 -73 -21 -94 0 -18 18 -20 72 -2 93 16 19 83 18 99 -2z"/>
<path d="M466 674 c-18 -17 -22 -54 -6 -54 6 0 10 11 10 25 0 25 1 25 90 25
89 0 90 0 90 -25 0 -14 5 -25 10 -25 16 0 12 37 -6 54 -11 12 -36 16 -94 16
-58 0 -83 -4 -94 -16z"/>
<path d="M550 545 l0 -35 -125 0 -125 0 2 -42 c1 -37 2 -39 5 -10 l4 32 120 0
119 0 0 -30 c0 -16 5 -30 10 -30 6 0 10 14 10 30 l0 30 119 0 120 0 4 -32 c3
-29 4 -27 5 10 l2 42 -125 0 -125 0 0 35 c0 19 -4 35 -10 35 -5 0 -10 -16 -10
-35z"/>
<path d="M252 357 c-28 -30 -28 -68 1 -95 47 -44 120 -15 120 48 0 63 -78 93
-121 47z m90 -4 c37 -33 11 -103 -39 -103 -28 0 -63 33 -63 60 0 26 34 60 62
60 12 0 30 -7 40 -17z"/>
<path d="M510 360 c-43 -43 -11 -120 50 -120 38 0 70 32 70 70 0 17 -9 39 -20
50 -11 11 -33 20 -50 20 -17 0 -39 -9 -50 -20z m90 -10 c11 -11 20 -29 20 -40
0 -26 -34 -60 -60 -60 -26 0 -60 34 -60 60 0 11 9 29 20 40 11 11 29 20 40 20
11 0 29 -9 40 -20z"/>
<path d="M769 362 c-15 -13 -22 -30 -22 -52 0 -63 78 -93 121 -47 28 30 28 68
-1 95 -28 27 -67 28 -98 4z m91 -12 c11 -11 20 -29 20 -40 0 -26 -34 -60 -62
-60 -50 0 -76 63 -41 102 21 24 58 23 83 -2z"/>
</g>
</svg>
