<svg id="Capa_1" data-name="Capa 1" xmlns="http://www.w3.org/2000/svg" viewBox="0 0 111 111"><title>icon-3</title><path d="M55.53,23.49c-5.75,0-10.41,5.37-10.41,12s4.66,12,10.41,12,10.41-5.38,10.41-12S61.28,23.49,55.53,23.49Zm0,21.33c-4.47,0-8.09-4.18-8.09-9.33s3.62-9.34,8.09-9.34,8.1,4.18,8.1,9.34S60,44.82,55.53,44.82Z"/><path d="M77.16,28.12c-4.9,0-8.87,4.5-8.87,10s4,10.05,8.87,10.05S86,43.71,86,38.16,82.06,28.12,77.16,28.12Zm0,17.85c-3.81,0-6.9-3.49-6.9-7.81s3.09-7.81,6.9-7.81,6.9,3.5,6.9,7.81S81,46,77.16,46Z"/><path d="M33.83,27.4c-4.9,0-8.87,4.49-8.87,10s4,10.05,8.87,10.05S42.7,43,42.7,37.44,38.73,27.4,33.83,27.4Zm0,17.85c-3.81,0-6.9-3.49-6.9-7.81s3.09-7.81,6.9-7.81,6.9,3.5,6.9,7.81S37.64,45.25,33.83,45.25Z"/><path d="M34.78,72.39h3.38l.12-10.73c0-1.39.12-4.33.75-5.31l1.19-1.07c1.26-2,3.23-1.93,5-1.93l22.22.06c1.2,0,3.43.61,4.28,1.94l.94,1.74A11.54,11.54,0,0,1,73,60.53l-.19,11.86h3.5v-11a13.8,13.8,0,0,0-1.94-7.33l-.59-.92C72.37,51,70.5,49.8,68.55,49.8h-27a8.34,8.34,0,0,0-4.33,3.05l-.86,1.43C35,56.46,35,58.51,35,61.59Z"/><polygon points="23.16 59.91 26.09 59.91 26.09 75.59 22.84 75.59 23.16 59.91"/><polygon points="43.28 59.91 46.22 59.91 46.22 75.59 42.97 75.59 43.28 59.91"/><polygon points="66.25 59.91 69.19 59.91 69.19 75.59 65.94 75.59 66.25 59.91"/><polygon points="85.19 59.91 88.13 59.91 88.13 75.59 84.88 75.59 85.19 59.91"/><path d="M18.91,73.41V59.68a6.12,6.12,0,0,1,1.85-4.38l2-1.9a6,6,0,0,1,4.16-1.68h10V49.53H25.3a5.78,5.78,0,0,0-4.16,1.77l-2.48,2.57a9.79,9.79,0,0,0-2.75,6.81V73.41Z"/><path d="M92.78,74.47V60.74a6,6,0,0,0-1.93-4.38l-2-1.89a6.38,6.38,0,0,0-4.33-1.69H74.1V50.6h12a6.14,6.14,0,0,1,4.33,1.76L93,54.93a9.6,9.6,0,0,1,2.87,6.81V74.47Z"/><path d="M66.12,79.45l-.33-2a.9.9,0,0,0-.87-.75l-5.41,0a.88.88,0,0,1-.84-.63L57.18,71.1a.9.9,0,0,0-.86-.63H55.6a.88.88,0,0,0-.8.5l-2.38,4.88a.91.91,0,0,1-.81.5h-5a.89.89,0,0,0-.82.54L45.1,78.4a.91.91,0,0,0,.21,1l4.23,4a.88.88,0,0,1,.24.92l-1.44,4.51a.88.88,0,0,0,.22.9l1.34,1.35a.9.9,0,0,0,1.13.11l4-2.64a.89.89,0,0,1,1,0L59.69,91a.9.9,0,0,0,.87.06L62.84,90a.9.9,0,0,0,.47-1.08L61.8,84.18a.88.88,0,0,1,.29-1l3.7-2.91A.9.9,0,0,0,66.12,79.45ZM60.24,88l-.06,0a.89.89,0,0,1-1,0l-2-1.49a2.72,2.72,0,0,0-3.23,0L51,88.72l-1-.79,1.47-3.29a2.56,2.56,0,0,0-.8-3.08l-2.87-2.15.43-.88,3.91-.12a2.7,2.7,0,0,0,2.54-2l.85-3.25.8.06.3,3.23a2.16,2.16,0,0,0,2,2l4,.22a.9.9,0,0,1,.84.93h0a1,1,0,0,1-.52.81l-2.29,1.17a2.51,2.51,0,0,0-1.15,3.23l.95,2.17A.89.89,0,0,1,60.24,88Z"/><path d="M86.5,79.7,86.22,78a.75.75,0,0,0-.74-.63l-4.57,0a.76.76,0,0,1-.72-.54l-1.26-4.16a.76.76,0,0,0-.72-.54H77.6a.75.75,0,0,0-.68.42l-2,4.13a.75.75,0,0,1-.68.42H70a.77.77,0,0,0-.7.46l-.54,1.28a.74.74,0,0,0,.17.84L72.47,83a.74.74,0,0,1,.2.77l-1.22,3.82a.74.74,0,0,0,.19.76l1.14,1.14a.74.74,0,0,0,1,.1l3.35-2.24a.76.76,0,0,1,.83,0l3.14,2.08a.73.73,0,0,0,.74,0l1.93-.91a.76.76,0,0,0,.4-.91l-1.28-4a.74.74,0,0,1,.25-.82l3.13-2.47A.77.77,0,0,0,86.5,79.7Zm-5,7.24,0,0a.74.74,0,0,1-.87,0L78.9,85.7a2.28,2.28,0,0,0-2.72,0l-2.45,1.84-.83-.67,1.24-2.78a2.17,2.17,0,0,0-.67-2.61L71,79.66l.37-.74,3.31-.1a2.31,2.31,0,0,0,2.15-1.72l.72-2.75.68.05.25,2.73a1.83,1.83,0,0,0,1.72,1.67l3.38.18a.77.77,0,0,1,.72.79h0a.84.84,0,0,1-.44.69l-1.94,1a2.12,2.12,0,0,0-1,2.73l.8,1.83A.75.75,0,0,1,81.52,86.94Z"/><path d="M42.31,79.72,42,78a.75.75,0,0,0-.73-.63l-4.58,0a.75.75,0,0,1-.71-.54l-1.27-4.17a.75.75,0,0,0-.72-.53h-.61a.74.74,0,0,0-.67.42l-2,4.13a.77.77,0,0,1-.68.42H25.77a.75.75,0,0,0-.69.46l-.55,1.27a.77.77,0,0,0,.18.85l3.58,3.38a.76.76,0,0,1,.2.78l-1.22,3.82a.74.74,0,0,0,.18.76l1.14,1.14a.75.75,0,0,0,.95.1l3.36-2.24a.74.74,0,0,1,.83,0l3.14,2.08a.73.73,0,0,0,.74.05l1.93-.91a.75.75,0,0,0,.39-.91l-1.28-4a.77.77,0,0,1,.25-.82L42,80.43A.73.73,0,0,0,42.31,79.72Zm-5,7.24,0,0a.77.77,0,0,1-.88,0l-1.69-1.25a2.28,2.28,0,0,0-2.73,0l-2.44,1.84-.83-.67L30,84.11a2.16,2.16,0,0,0-.68-2.61l-2.43-1.82.37-.74,3.31-.11a2.3,2.3,0,0,0,2.15-1.71l.71-2.75.68,0,.25,2.73A1.83,1.83,0,0,0,36,78.81l3.39.19a.76.76,0,0,1,.71.79h0a.82.82,0,0,1-.44.69l-1.93,1a2.11,2.11,0,0,0-1,2.73L37.6,86A.77.77,0,0,1,37.33,87Z"/><path d="M104.65,79.66l-.23-1.39a.63.63,0,0,0-.61-.52l-3.76,0a.62.62,0,0,1-.59-.44l-1-3.43a.62.62,0,0,0-.59-.44h-.5a.61.61,0,0,0-.56.35l-1.66,3.39a.63.63,0,0,1-.56.35H91a.63.63,0,0,0-.57.37L90,78.93a.6.6,0,0,0,.14.69l3,2.79a.61.61,0,0,1,.16.64l-1,3.14a.64.64,0,0,0,.15.63l.94.94a.62.62,0,0,0,.78.07L96.9,86a.66.66,0,0,1,.69,0l2.58,1.71a.63.63,0,0,0,.61,0l1.59-.75a.61.61,0,0,0,.32-.75l-1-3.29a.61.61,0,0,1,.21-.68l2.57-2A.62.62,0,0,0,104.65,79.66Zm-4.1,6,0,0a.63.63,0,0,1-.73,0l-1.39-1a1.88,1.88,0,0,0-2.24,0l-2,1.51-.68-.55,1-2.29a1.77,1.77,0,0,0-.55-2.14l-2-1.5.3-.61L95,78.93a1.88,1.88,0,0,0,1.77-1.41l.59-2.26.56,0,.2,2.25a1.5,1.5,0,0,0,1.42,1.37l2.79.15a.62.62,0,0,1,.58.65h0a.66.66,0,0,1-.36.57l-1.59.81a1.74,1.74,0,0,0-.8,2.25l.66,1.51A.62.62,0,0,1,100.55,85.62Z"/><path d="M21,80l-.22-1.38a.62.62,0,0,0-.61-.52l-3.76,0a.61.61,0,0,1-.59-.44l-1-3.43a.62.62,0,0,0-.6-.44h-.5a.62.62,0,0,0-.56.35l-1.66,3.39a.62.62,0,0,1-.55.35H7.41a.63.63,0,0,0-.57.38l-.45,1a.61.61,0,0,0,.15.69L9.48,82.7a.61.61,0,0,1,.17.64l-1,3.14a.62.62,0,0,0,.16.63l.93.94a.62.62,0,0,0,.79.07l2.76-1.83a.6.6,0,0,1,.68,0L16.55,88a.63.63,0,0,0,.61,0l1.58-.75a.63.63,0,0,0,.33-.75L18,83.25a.65.65,0,0,1,.21-.68l2.58-2A.63.63,0,0,0,21,80Zm-4.09,6,0,0a.62.62,0,0,1-.72,0l-1.39-1a1.89,1.89,0,0,0-2.25,0l-2,1.51-.68-.55,1-2.3a1.79,1.79,0,0,0-.56-2.14l-2-1.5.31-.61,2.72-.08a1.91,1.91,0,0,0,1.77-1.41l.59-2.27.56,0,.2,2.25a1.5,1.5,0,0,0,1.42,1.37l2.78.16a.62.62,0,0,1,.59.64h0a.68.68,0,0,1-.36.57l-1.59.81a1.74,1.74,0,0,0-.8,2.25l.66,1.51A.64.64,0,0,1,16.93,85.91Z"/></svg>