<?xml version="1.0" standalone="no"?>
<!DOCTYPE svg PUBLIC "-//W3C//DTD SVG 20010904//EN"
 "http://www.w3.org/TR/2001/REC-SVG-20010904/DTD/svg10.dtd">
<svg version="1.0" xmlns="http://www.w3.org/2000/svg"
 width="111.000000pt" height="111.000000pt" viewBox="0 0 111.000000 111.000000"
 preserveAspectRatio="xMidYMid meet">

<g transform="translate(0.000000,111.000000) scale(0.100000,-0.100000)"
fill="#000000" stroke="none">
<path d="M500 946 c-30 -16 -74 -35 -99 -42 l-46 -11 -3 -109 c-4 -151 7 -177
103 -243 40 -28 80 -54 88 -57 18 -7 155 83 186 122 19 24 21 40 21 160 l0
134 -24 0 c-14 0 -58 17 -99 38 l-74 38 -53 -30z m97 -20 c20 -14 58 -31 85
-37 l48 -13 0 -110 c0 -69 -5 -120 -13 -136 -7 -14 -47 -48 -88 -77 l-76 -52
-76 51 c-41 29 -80 63 -86 75 -6 13 -11 75 -11 137 l0 114 33 6 c17 4 55 19
82 35 28 16 54 29 58 30 4 1 24 -10 44 -23z"/>
<path d="M593 738 l-53 -52 -35 34 c-19 18 -38 30 -42 26 -4 -3 12 -26 35 -49
l42 -42 60 60 c57 56 70 75 52 75 -4 0 -31 -23 -59 -52z"/>
<path d="M226 479 c-39 -31 -49 -63 -32 -104 32 -76 130 -75 162 1 13 31 13
39 -1 68 -27 56 -83 71 -129 35z m96 -26 c40 -36 8 -113 -47 -113 -54 0 -85
71 -48 112 20 22 70 23 95 1z"/>
<path d="M768 460 c-26 -27 -30 -36 -25 -68 12 -76 88 -105 146 -56 25 20 31
34 31 64 0 30 -6 44 -31 64 -42 36 -82 34 -121 -4z m106 -11 c33 -26 34 -62 0
-95 -19 -20 -31 -24 -52 -19 -41 10 -52 24 -52 66 0 28 6 42 22 53 30 21 50
20 82 -5z"/>
<path d="M509 405 c-54 -29 -60 -107 -12 -145 91 -72 201 60 112 134 -34 29
-61 32 -100 11z m93 -32 c24 -21 23 -68 -2 -93 -41 -41 -110 -13 -110 45 0 18
7 41 16 49 20 21 73 20 96 -1z"/>
<path d="M188 274 c-34 -18 -54 -52 -40 -66 7 -7 12 -3 17 12 19 61 171 66
217 7 9 -12 20 -19 23 -15 11 11 -14 47 -45 63 -37 19 -136 19 -172 -1z"/>
<path d="M722 243 c-21 -20 -32 -38 -26 -40 7 -2 25 10 42 27 27 26 37 30 86
30 63 0 103 -15 111 -42 4 -10 13 -18 21 -18 12 0 13 4 3 23 -23 45 -49 57
-127 57 -72 0 -75 -1 -110 -37z"/>
<path d="M468 194 c-34 -18 -54 -52 -40 -66 7 -7 12 -3 17 11 18 59 150 69
205 16 16 -16 32 -26 36 -23 10 10 -25 54 -52 66 -35 17 -134 14 -166 -4z"/>
</g>
</svg>
