<?xml version="1.0" standalone="no"?>
<!DOCTYPE svg PUBLIC "-//W3C//DTD SVG 20010904//EN"
 "http://www.w3.org/TR/2001/REC-SVG-20010904/DTD/svg10.dtd">
<svg version="1.0" xmlns="http://www.w3.org/2000/svg"
 width="111.000000pt" height="111.000000pt" viewBox="0 0 111.000000 111.000000"
 preserveAspectRatio="xMidYMid meet">

<g transform="translate(0.000000,111.000000) scale(0.100000,-0.100000)"
fill="#000000" stroke="none">
<path d="M513 875 c-41 -18 -53 -42 -53 -107 0 -64 17 -92 65 -108 30 -10 41
-9 73 7 76 37 81 159 9 203 -38 23 -51 24 -94 5z m102 -30 c36 -35 36 -115 0
-150 -24 -25 -65 -32 -100 -19 -22 9 -45 57 -45 94 0 35 23 86 42 93 34 14 80
6 103 -18z"/>
<path d="M301 836 c-84 -47 -55 -186 39 -186 72 0 111 80 75 151 -15 28 -50
49 -78 49 -7 -1 -23 -7 -36 -14z m89 -26 c31 -31 28 -102 -6 -129 -15 -12 -34
-21 -44 -21 -10 0 -29 9 -44 21 -21 17 -26 29 -26 65 0 53 26 84 70 84 17 0
39 -9 50 -20z"/>
<path d="M709 811 c-43 -43 -38 -121 10 -158 27 -21 79 -15 106 12 20 19 25
34 25 75 0 42 -5 55 -26 75 -37 34 -78 33 -115 -4z m111 -11 c24 -24 27 -86 5
-117 -26 -38 -92 -37 -117 1 -14 21 -8 99 9 118 22 24 77 24 103 -2z"/>
<path d="M243 623 c-12 -2 -33 -16 -47 -30 -24 -24 -26 -31 -24 -117 l1 -91 7
85 c3 47 9 92 14 101 12 26 52 39 121 39 37 0 65 4 65 10 0 10 -92 12 -137 3z"/>
<path d="M420 612 c-20 -10 -42 -32 -52 -52 -19 -38 -25 -140 -8 -140 6 0 10
29 10 66 0 59 3 68 29 95 29 29 30 29 150 29 66 0 131 -5 144 -11 35 -16 50
-47 57 -119 l7 -65 2 63 c2 122 -37 152 -201 152 -78 0 -111 -4 -138 -18z"/>
<path d="M750 610 c0 -6 28 -10 64 -10 95 0 109 -14 117 -126 l6 -89 1 83 c2
93 -6 115 -48 137 -32 17 -140 21 -140 5z"/>
<path d="M243 445 c0 -44 2 -61 4 -37 2 23 2 59 0 80 -2 20 -4 1 -4 -43z"/>
<path d="M863 445 c0 -44 2 -61 4 -37 2 23 2 59 0 80 -2 20 -4 1 -4 -43z"/>
<path d="M443 445 c0 -38 2 -53 4 -32 2 20 2 52 0 70 -2 17 -4 1 -4 -38z"/>
<path d="M660 451 c0 -33 5 -63 10 -66 6 -4 10 18 10 59 0 37 -4 66 -10 66 -6
0 -10 -26 -10 -59z"/>
<path d="M543 407 c-6 -6 -13 -20 -16 -29 -4 -11 -17 -18 -30 -18 -40 0 -51
-23 -23 -49 20 -19 23 -28 16 -52 -11 -37 7 -48 42 -25 22 14 26 14 46 0 34
-23 54 -12 42 22 -9 23 -7 31 15 54 28 29 19 50 -22 50 -16 0 -27 8 -33 24
-11 31 -25 39 -37 23z m70 -67 l32 -1 -24 -19 c-18 -16 -22 -26 -17 -50 6 -33
-1 -37 -29 -16 -17 12 -22 12 -39 0 -30 -21 -36 -17 -30 16 5 24 1 34 -17 50
l-24 19 33 1 c28 0 35 5 44 32 l12 33 13 -33 c11 -27 18 -32 46 -32z"/>
<path d="M322 388 c-6 -6 -12 -18 -12 -25 0 -7 -11 -13 -24 -13 -34 0 -43 -20
-19 -40 15 -12 18 -21 12 -38 -10 -27 13 -41 35 -22 11 8 20 8 35 1 34 -19 44
-14 38 18 -5 23 -1 32 15 43 26 17 16 38 -18 38 -13 0 -24 4 -24 8 0 5 -6 16
-13 25 -10 14 -15 15 -25 5z m56 -58 c12 0 13 -3 4 -12 -7 -7 -12 -22 -12 -35
0 -24 -14 -31 -25 -13 -4 7 -12 7 -25 0 -26 -14 -29 -13 -23 11 4 15 0 27 -12
35 -18 13 -18 14 3 14 12 0 27 10 33 22 l12 22 15 -22 c8 -12 22 -22 30 -22z"/>
<path d="M758 375 c-7 -16 -19 -25 -34 -25 -33 0 -42 -21 -16 -38 17 -11 20
-20 15 -45 -6 -28 -5 -30 18 -23 30 9 38 9 67 0 21 -6 23 -4 20 22 -2 19 3 34
16 45 23 19 14 39 -19 39 -16 0 -25 7 -29 25 -4 14 -11 25 -16 25 -6 0 -16
-11 -22 -25z m64 -45 c21 0 21 -1 3 -14 -12 -8 -16 -20 -12 -35 6 -24 3 -25
-23 -11 -13 7 -21 7 -25 0 -11 -18 -25 -10 -25 15 0 13 -8 29 -17 34 -16 9
-16 10 5 11 14 0 27 9 34 26 l12 25 13 -25 c8 -16 22 -26 35 -26z"/>
<path d="M117 360 c-3 -12 -14 -20 -26 -20 -24 0 -27 -12 -7 -29 8 -7 11 -22
8 -38 -4 -23 -2 -25 14 -18 20 8 26 8 59 3 16 -2 19 2 17 23 -2 17 3 29 13 33
21 7 10 26 -15 26 -10 0 -22 9 -25 20 -3 11 -12 20 -20 20 -7 0 -15 -9 -18
-20z m49 -56 c-13 -28 -49 -28 -62 0 -12 27 20 47 52 32 17 -8 19 -14 10 -32z"/>
<path d="M955 360 c-3 -11 -15 -20 -25 -20 -26 0 -34 -17 -14 -28 11 -6 15
-17 11 -31 -6 -25 9 -37 28 -21 10 8 19 8 34 1 29 -16 34 -14 29 14 -3 14 1
30 8 36 20 17 17 29 -7 29 -12 0 -23 8 -26 20 -3 11 -11 20 -18 20 -8 0 -17
-9 -20 -20z m46 -66 c-5 -18 -10 -24 -15 -16 -5 9 -13 9 -26 2 -16 -9 -18 -8
-14 5 4 8 1 22 -6 30 -10 12 -9 15 4 15 9 0 19 6 22 14 5 12 9 11 24 -4 14
-14 17 -26 11 -46z"/>
</g>
</svg>
