<svg id="Capa_1" data-name="Capa 1" xmlns="http://www.w3.org/2000/svg" viewBox="0 0 111 111"><defs><style>.cls-1{fill:#fff;}</style></defs><title>icon-1</title><polygon points="40 17.33 40 21.67 27.17 21.67 27.17 35.67 42.5 35.67 42.5 29.83 46.5 29.83 46.5 39.5 23.5 39.5 23.5 17.33 40 17.33"/><polygon class="cls-1" points="44.67 18.33 35 30 31.17 26.17 28.83 28.42 35 35 47.67 20.83 44.67 18.33"/><path d="M67.67,37.33s-6.24-.74-13.16,4.51c-.89.68-3.34,4.45-3.34,5.58V63.83s1.66,6.5,7,6V92.5h3.16V50.17H57.5V66.5s-3,1-2.83-4.33V47.8a3.49,3.49,0,0,1,1.68-3l1.15-1.44C59.8,42,62,39.9,64.67,39.9l5.83-.4c2,0,5.29.19,7.11,1l4.27,2.75a4.43,4.43,0,0,1,2.62,4.17L84.38,64.9l-2.56.89a.83.83,0,0,1-1.17-.74L80.5,50.5H77.17l.5,42h3.66V69.17s7.17,1,6.5-6.17c0-4.79,0-11.37,0-15a8,8,0,0,0-2.61-6A20.07,20.07,0,0,0,75,37.33H67.67Z"/><rect x="67.17" y="65.67" width="4.17" height="26.83"/><path d="M71.61,16.69a19.09,19.09,0,0,0-6,0,5.11,5.11,0,0,0-3.52,3.23,7.49,7.49,0,0,0-.57,2.92c-.05,3.13-.07,4.58-.08,5.93A6.84,6.84,0,0,0,63,33.08a7.9,7.9,0,0,0,2.64,2.11h6.66a5.63,5.63,0,0,0,3.44-1.8,7.09,7.09,0,0,0,1.9-4.95v-4.7a7,7,0,0,0-2.25-5.14A7.24,7.24,0,0,0,71.61,16.69Zm1,14.73h0A4.31,4.31,0,0,1,69.7,32.5h-1a3.8,3.8,0,0,1-2.7-1.12h0a4.67,4.67,0,0,1-1.38-3.33V24.24a5.19,5.19,0,0,1,1-3.13h0a4.87,4.87,0,0,1,3.89-1.94h0a4,4,0,0,1,2.1.56,6.84,6.84,0,0,1,1.41,1h0A2.71,2.71,0,0,1,74,22.3a5.82,5.82,0,0,1,.15,1.1v4.46A4.76,4.76,0,0,1,72.56,31.42Z"/><polygon points="40 43.92 40 48.25 27.17 48.25 27.17 62.25 42.5 62.25 42.5 56.42 46.5 56.42 46.5 66.08 23.5 66.08 23.5 43.92 40 43.92"/><line x1="35" y1="61.58" x2="47.67" y2="47.42"/><polygon points="44.67 44.92 35 56.58 31.17 52.75 28.83 55 35 61.58 47.67 47.42 44.67 44.92"/><polygon class="cls-1" points="40.42 70.5 40.42 74.83 27.58 74.83 27.58 88.83 42.92 88.83 42.92 83 46.92 83 46.92 92.67 23.92 92.67 23.92 70.5 40.42 70.5"/><polygon points="45.08 71.5 35.42 83.17 31.58 79.33 29.25 81.58 35.42 88.17 48.08 74 45.08 71.5"/><polygon points="44.67 18.33 35 30 31.17 26.17 28.83 28.42 35 35 47.67 20.83 44.67 18.33"/><polygon points="40 70.33 40 74.67 27.17 74.67 27.17 88.67 42.5 88.67 42.5 82.83 46.5 82.83 46.5 92.5 23.5 92.5 23.5 70.33 40 70.33"/></svg>