<svg id="Capa_1" data-name="Capa 1" xmlns="http://www.w3.org/2000/svg" viewBox="0 0 111 111"><title>icon-2</title><path d="M55.6,12.68a10.8,10.8,0,1,0,10.8,10.8A10.79,10.79,0,0,0,55.6,12.68Zm0,19.2a8.4,8.4,0,1,1,8.4-8.4A8.41,8.41,0,0,1,55.6,31.88Z"/><path d="M23.36,73.61A10.07,10.07,0,1,0,33.43,83.68,10.07,10.07,0,0,0,23.36,73.61Zm0,17.9a7.83,7.83,0,1,1,7.83-7.83A7.83,7.83,0,0,1,23.36,91.51Z"/><path d="M55.6,73.61A10.07,10.07,0,1,0,65.67,83.68,10.06,10.06,0,0,0,55.6,73.61Zm0,17.9a7.83,7.83,0,1,1,7.84-7.83A7.83,7.83,0,0,1,55.6,91.51Z"/><path d="M87.64,73.61A10.07,10.07,0,1,0,97.71,83.68,10.07,10.07,0,0,0,87.64,73.61Zm0,17.9a7.83,7.83,0,1,1,7.83-7.83A7.83,7.83,0,0,1,87.64,91.51Z"/><polygon points="21.9 69.44 25.03 69.44 25.03 61.41 54.25 61.41 54.25 69.44 57.06 69.44 57.06 61.41 86.59 61.41 86.59 69.44 89.41 69.44 89.41 58.17 57.06 58.17 57.06 49.51 54.35 49.51 54.35 58.48 21.9 58.48 21.9 69.44"/></svg>