<?xml version="1.0" standalone="no"?>
<!DOCTYPE svg PUBLIC "-//W3C//DTD SVG 20010904//EN"
 "http://www.w3.org/TR/2001/REC-SVG-20010904/DTD/svg10.dtd">
<svg version="1.0" xmlns="http://www.w3.org/2000/svg"
 width="111.000000pt" height="111.000000pt" viewBox="0 0 111.000000 111.000000"
 preserveAspectRatio="xMidYMid meet">

<g transform="translate(0.000000,111.000000) scale(0.100000,-0.100000)"
fill="#000000" stroke="none">
<path d="M635 915 c-35 -34 -35 -106 0 -140 46 -47 119 -24 131 40 18 100 -67
165 -131 100z m93 -17 c18 -18 15 -94 -4 -112 -18 -19 -38 -20 -65 -6 -15 8
-19 21 -19 58 0 27 5 53 12 60 15 15 61 15 76 0z"/>
<path d="M230 820 l0 -100 115 0 115 0 0 45 c0 33 -4 45 -15 45 -10 0 -15 -11
-15 -35 l0 -35 -85 0 -85 0 0 80 0 80 65 0 c37 0 65 4 65 10 0 6 -33 10 -80
10 l-80 0 0 -100z"/>
<path d="M396 854 c-46 -53 -49 -55 -67 -38 -33 30 -43 2 -11 -29 l28 -27 57
66 c31 36 57 70 57 75 0 20 -18 7 -64 -47z"/>
<path d="M645 719 c-59 -11 -91 -25 -114 -50 -18 -19 -21 -35 -21 -106 0 -91
15 -137 50 -148 18 -6 20 -15 20 -121 0 -69 4 -114 10 -114 6 0 10 75 10 205
0 130 -4 205 -10 205 -6 0 -10 -32 -10 -75 0 -41 -4 -75 -9 -75 -24 0 -32 32
-29 121 l3 93 35 20 c27 16 52 21 110 21 58 0 83 -5 110 -21 l35 -20 3 -93 c3
-89 -5 -121 -29 -121 -5 0 -9 34 -9 75 0 60 -3 75 -15 75 -13 0 -15 -29 -15
-205 0 -176 2 -205 15 -205 12 0 15 19 15 114 0 108 1 115 21 121 31 10 49 65
49 148 0 88 -17 117 -83 140 -58 21 -95 25 -142 16z"/>
<path d="M230 555 l0 -105 115 0 115 0 0 45 c0 33 -4 45 -15 45 -10 0 -15 -10
-15 -30 l0 -30 -85 0 -85 0 0 75 0 75 65 0 c51 0 65 3 65 15 0 12 -16 15 -80
15 l-80 0 0 -105z"/>
<path d="M394 592 c-50 -56 -52 -57 -72 -39 -31 29 -35 3 -3 -27 l28 -27 58
66 c33 38 54 70 49 75 -5 5 -31 -15 -60 -48z"/>
<path d="M680 305 c0 -77 4 -125 10 -125 6 0 10 48 10 125 0 77 -4 125 -10
125 -6 0 -10 -48 -10 -125z"/>
<path d="M230 295 l0 -105 115 0 115 0 0 45 c0 33 -4 45 -15 45 -10 0 -15 -10
-15 -30 l0 -30 -85 0 -85 0 0 75 0 75 65 0 c51 0 65 3 65 15 0 12 -16 15 -80
15 l-80 0 0 -105z"/>
<path d="M400 335 c-47 -57 -58 -63 -78 -43 -6 6 -15 8 -19 5 -4 -4 5 -19 19
-33 l25 -26 58 67 c35 40 55 69 49 75 -6 6 -27 -12 -54 -45z"/>
</g>
</svg>
